# xmcd
#
# Track frame offsets: 
#        150
#        12440
#        43310
#        60787
#        74470
#        98432
#        115852
#        131160
#        144782
#        168977
#        190502
#        210687
#        227027
#        242822
#        263755
#        280882
#        299140
#        326987
#
# Disc length: 4629 seconds
#
# Revision: 4
# Processed by: cddbd v1.5.2PL0 Copyright (c) Steve Scherf et al.
# Submitted via: ExactAudioCopy v1.3
#
DISCID=0d121312
DTITLE=John Lee Hooker - The Complete Chess Folk Blues Sessions
DYEAR=1991
DGENRE=Blues
TTITLE0=I'm In The Mood
TTITLE1=Let's Go Out Tonight
TTITLE2=Peace Loving Man
TTITLE3=Stella Mae
TTITLE4=I Put My Trust In You
TTITLE5=You Know, I Know
TTITLE6=I'll Never Trust Your Love Again
TTITLE7=One Burbon, One Scotch, One Beer
TTITLE8=The Waterfront
TTITLE9=Lead Me (You Can Lead Me Baby)
TTITLE10=Nobody Knows
TTITLE11=Deep Blue Sea
TTITLE12=I Can't Quit You Baby
TTITLE13=Mustang And GTO
TTITLE14=House Rent Blues
TTITLE15=Catfish Blues
TTITLE16=Want Ad Blues
TTITLE17=This Land Is Nobody's Land
EXTD=
EXTT0=
EXTT1=
EXTT2=
EXTT3=
EXTT4=
EXTT5=
EXTT6=
EXTT7=
EXTT8=
EXTT9=
EXTT10=
EXTT11=
EXTT12=
EXTT13=
EXTT14=
EXTT15=
EXTT16=
EXTT17=
PLAYORDER=
